# xmcd
#
# Track frame offsets: 
#        183
#        15440
#        29628
#        45603
#        57830
#        82195
#        101810
#        119618
#        132275
#        146238
#        158828
#
# Disc length: 2359 seconds
#
# Revision: 3
# Processed by: cddbd v1.5.2PL0 Copyright (c) Steve Scherf et al.
# Submitted via: ExactAudioCopyFreeDBPlugin 1.0
#
DISCID=9c09350b
DTITLE=Kevin Welch - Kevin Welch
DYEAR=1990
DGENRE=Country
TTITLE0=True Love Never Dies
TTITLE1=Praying For Rain
TTITLE2=Hello, I'm Gone
TTITLE3=Till I See You Again
TTITLE4=Some Kind Of Paradise
TTITLE5=The Mother Road
TTITLE6=Long Way Home
TTITLE7=I Am No Drifter
TTITLE8=I'd Be Missing You
TTITLE9=I Came Straight To You
TTITLE10=A Letter To Dustin
EXTD=
EXTT0=
EXTT1=
EXTT2=
EXTT3=
EXTT4=
EXTT5=
EXTT6=
EXTT7=
EXTT8=
EXTT9=
EXTT10=
PLAYORDER=
